<svg id="divi-madmenu-logo" xmlns="http://www.w3.org/2000/svg" viewBox="0 0 1975.57 1858.08"><path d="M576.74,1183.84c0-1.84,0-3.67,0-5.5C350.27,1141.13,149.52,1026.49,2.12,862.18Q1.69,877,1.67,892c0,462.12,310.52,851,732.47,965.91C633.39,1654.77,576.74,1425.92,576.74,1183.84Z" transform="translate(-1.67 0.21)" fill="#2b87da"/><path d="M1402.17,1183.84c0-1.84,0-3.67,0-5.5,226.51-37.21,427.25-151.85,574.66-316.16q.42,14.84.44,29.78c0,462.12-310.51,851-732.47,965.91C1345.53,1654.77,1402.17,1425.92,1402.17,1183.84Z" transform="translate(-1.67 0.21)" fill="#2b87da"/><rect x="787.05" y="965.23" width="417.93" height="91.04" fill="#2b87da"/><path d="M1398.39-.21c.11,3,.18,6,.18,9.06,0,72.5-32.29,139.24-86.49,192.32-5.85,5.72-20.91,18.9-22.16,19.93l-20.29,15.65c-1.29.93-25.88,17.13-26,17.21-1.33.81-8.81,5.21-8.88,5.25-4.55,2.61-18.81,10.18-19,10.29l-4.77,2.39c-1.37.67-24.57,11.23-24.86,11.35-1.33.56-41.53,20.81-44.09,21.76-2.13.79-119.5,67.62-128,74-4,3-8,6-20,8v904.35a16.11,16.11,0,0,0,11.67-5.89c104.21-124.89,240.4-215.57,393.85-255.51l2.47-.59c3-.73,6-1.49,9-2.25,1.33-.33,2.66-.66,4-1q5.46-1.39,10.9-2.87l2-.54q6.61-1.8,13.21-3.69l1.27-.37q5.77-1.68,11.54-3.41l3.5-1.07q4.66-1.44,9.32-2.9l4-1.28q4.47-1.44,8.91-2.92c1.32-.44,2.63-.87,3.94-1.32q4.64-1.56,9.23-3.16l3.41-1.19q5.43-1.9,10.83-3.89l1.65-.6q12.76-4.7,25.37-9.74l2.43-1q5-2,9.92-4.06l3.2-1.34q4.63-1.95,9.23-3.93l3.25-1.41q4.72-2.07,9.43-4.17l2.76-1.24q5.45-2.47,10.85-5c.38-.19.77-.36,1.16-.54q12.42-5.82,24.65-12l1.13-.58q5.37-2.71,10.7-5.49l2.3-1.2q4.82-2.52,9.59-5.1c.84-.44,1.67-.89,2.51-1.35q4.82-2.61,9.62-5.28l2.09-1.16q5.44-3,10.84-6.16c.22-.12.44-.24.65-.37q17.77-10.26,35.07-21.23l1.38-.88q5-3.16,9.91-6.38l1.79-1.17q4.88-3.21,9.71-6.46l1.48-1q5.37-3.65,10.71-7.34l.22-.15q17-11.81,33.43-24.3l.51-.39q5.09-3.87,10.12-7.8l2.09-1.63q4-3.08,7.9-6.27l1.77-1.42q26.64-21.45,51.76-44.69a33.56,33.56,0,0,1,2.64-2.29,22.32,22.32,0,0,0,4.2-3.8,44.29,44.29,0,0,1,3.76-3.85q24.9-23.71,48.14-49.11c.25-.27.48-.53.75-.79a44.91,44.91,0,0,0,4.33-4.61c1.48-1.85,3-3.5,4.45-5.16q22.93-25.8,44.11-53.19C1878.28,372,1671.55,125.12,1398.39-.21Z" transform="translate(-1.67 0.21)" fill="#2b87da"/><path d="M591.08-.21c-.12,3-.19,6-.19,9.06,0,72.5,32.5,139.24,87,192.32,5.88,5.72,21,18.9,22.29,19.93l20.42,15.65c1.3.93,26.05,17.13,26.18,17.21,1.34.81,8.87,5.21,8.94,5.25,4.58,2.61,18.93,10.18,19.13,10.29l4.8,2.39c1.37.67,24.72,11.23,25,11.35,1.33.56,41.79,20.81,44.36,21.76,2.15.79,120.25,67.62,128.8,74,4,3,8,6,20.13,8v904.35a16.27,16.27,0,0,1-11.75-5.89C881.39,1160.57,744.35,1069.89,589.94,1030l-2.49-.59c-3-.73-6.07-1.49-9.09-2.25-1.34-.33-2.68-.66-4-1q-5.51-1.39-11-2.87l-2-.54q-6.66-1.8-13.3-3.69l-1.27-.37q-5.82-1.68-11.61-3.41l-3.53-1.07q-4.7-1.44-9.38-2.9l-4-1.28q-4.5-1.44-9-2.92l-4-1.32q-4.67-1.56-9.29-3.16l-3.43-1.19q-5.46-1.9-10.9-3.89l-1.66-.6q-12.84-4.7-25.52-9.74l-2.45-1q-5-2-10-4.06l-3.22-1.34q-4.65-1.95-9.28-3.93l-3.27-1.41q-4.76-2.07-9.49-4.17L414,970q-5.48-2.47-10.92-5l-1.16-.54q-12.51-5.82-24.81-12l-1.14-.58q-5.4-2.71-10.77-5.49l-2.31-1.2q-4.85-2.52-9.65-5.1-1.26-.66-2.52-1.35-4.86-2.61-9.68-5.28L339,932.35q-5.48-3-10.91-6.16c-.22-.12-.44-.24-.65-.37q-17.88-10.26-35.29-21.23l-1.39-.88q-5-3.16-10-6.38l-1.8-1.17q-4.9-3.21-9.77-6.46l-1.49-1q-5.42-3.65-10.77-7.34l-.23-.15q-17.08-11.81-33.64-24.3l-.51-.39q-5.12-3.87-10.19-7.8c-.7-.54-1.39-1.09-2.1-1.63q-4-3.08-7.95-6.27l-1.78-1.42Q173.73,818,148.44,794.72a30.56,30.56,0,0,0-2.66-2.29,22.76,22.76,0,0,1-4.22-3.8,46,46,0,0,0-3.78-3.85q-25.05-23.71-48.45-49.11c-.24-.27-.48-.53-.75-.79a44,44,0,0,1-4.35-4.61c-1.5-1.85-3-3.5-4.48-5.16q-23.08-25.8-44.39-53.19C108.18,372,316.2,125.12,591.08-.21Z" transform="translate(-1.67 0.21)" fill="#2b87da"/></svg>